{
  "accessors": [
    {
      "bufferView": 2,
      "componentType": 5126,
      "count": 65532,
      "max": [
        -0.14813500642776489,
        -1.44992995262146,
        0.18435299396514893
      ],
      "min": [
        -0.79971998929977417,
        -1.8135099411010742,
        -0.23173800110816956
      ],
      "type": "VEC3"
    },
    {
      "bufferView": 2,
      "byteOffset": 786384,
      "componentType": 5126,
      "count": 65532,
      "max": [
        0.99984687566757202,
        0.99998652935028076,
        0.99829232692718506
      ],
      "min": [
        -0.99999040365219116,
        -0.9999956488609314,
        -0.99999237060546875
      ],
      "type": "VEC3"
    },
    {
      "bufferView": 3,
      "componentType": 5126,
      "count": 65532,
      "max": [
        1,
        0.99999994039535522,
        0.99831217527389526,
        1
      ],
      "min": [
        -0.99999058246612549,
        -0.99994981288909912,
        -0.90830284357070923,
        -1
      ],
      "type": "VEC4"
    },
    {
      "bufferView": 1,
      "componentType": 5126,
      "count": 65532,
      "max": [
        0.99820101261138916,
        0.99739599227905273
      ],
      "min": [
        0,
        0
      ],
      "type": "VEC2"
    },
    {
      "bufferView": 0,
      "componentType": 5125,
      "count": 343017,
      "max": [
        65531
      ],
      "min": [
        0
      ],
      "type": "SCALAR"
    },
    {
      "bufferView": 2,
      "byteOffset": 1572768,
      "componentType": 5126,
      "count": 65532,
      "max": [
        0.16553600132465363,
        -1.5067600011825562,
        0.18435299396514893
      ],
      "min": [
        -0.61493599414825439,
        -1.8333899974822998,
        -0.42465600371360779
      ],
      "type": "VEC3"
    },
    {
      "bufferView": 2,
      "byteOffset": 2359152,
      "componentType": 5126,
      "count": 65532,
      "max": [
        0.99995565414428711,
        0.99998801946640015,
        0.99829232692718506
      ],
      "min": [
        -0.99976611137390137,
        -0.99999129772186279,
        -0.99990373849868774
      ],
      "type": "VEC3"
    },
    {
      "bufferView": 3,
      "byteOffset": 1048512,
      "componentType": 5126,
      "count": 65532,
      "max": [
        0.99983799457550049,
        0.99995428323745728,
        0.86944621801376343,
        1
      ],
      "min": [
        -0.99999707937240601,
        -0.99957698583602905,
        -0.69887614250183105,
        -1
      ],
      "type": "VEC4"
    },
    {
      "bufferView": 1,
      "byteOffset": 524256,
      "componentType": 5126,
      "count": 65532,
      "max": [
        0.99850499629974365,
        0.99709498882293701
      ],
      "min": [
        0.0018609999679028988,
        0.00092999998014420271
      ],
      "type": "VEC2"
    },
    {
      "bufferView": 0,
      "byteOffset": 1372068,
      "componentType": 5125,
      "count": 330765,
      "max": [
        65531
      ],
      "min": [
        0
      ],
      "type": "SCALAR"
    },
    {
      "bufferView": 2,
      "byteOffset": 3145536,
      "componentType": 5126,
      "count": 65532,
      "max": [
        0.20293800532817841,
        -1.5067600011825562,
        0.18193000555038452
      ],
      "min": [
        -0.29879599809646606,
        -1.8027600049972534,
        -0.42438599467277527
      ],
      "type": "VEC3"
    },
    {
      "bufferView": 2,
      "byteOffset": 3931920,
      "componentType": 5126,
      "count": 65532,
      "max": [
        0.999919593334198,
        0.99999845027923584,
        0.99933558702468872
      ],
      "min": [
        -0.99904793500900269,
        -0.99999988079071045,
        -0.9988396167755127
      ],
      "type": "VEC3"
    },
    {
      "bufferView": 3,
      "byteOffset": 2097024,
      "componentType": 5126,
      "count": 65532,
      "max": [
        1,
        0.99823200702667236,
        0.99894016981124878,
        1
      ],
      "min": [
        -0.99999737739562988,
        -0.99998492002487183,
        -0.734080970287323,
        -1
      ],
      "type": "VEC4"
    },
    {
      "bufferView": 1,
      "byteOffset": 1048512,
      "componentType": 5126,
      "count": 65532,
      "max": [
        0.99785399436950684,
        0.99788600206375122
      ],
      "min": [
        0,
        0
      ],
      "type": "VEC2"
    },
    {
      "bufferView": 0,
      "byteOffset": 2695128,
      "componentType": 5125,
      "count": 328362,
      "max": [
        65531
      ],
      "min": [
        0
      ],
      "type": "SCALAR"
    },
    {
      "bufferView": 2,
      "byteOffset": 4718304,
      "componentType": 5126,
      "count": 23983,
      "max": [
        0.15533599257469177,
        -1.6398999691009521,
        0.16424599289894104
      ],
      "min": [
        -0.29879599809646606,
        -1.8113299608230591,
        -0.16258199512958527
      ],
      "type": "VEC3"
    },
    {
      "bufferView": 2,
      "byteOffset": 5006100,
      "componentType": 5126,
      "count": 23983,
      "max": [
        0.99976605176925659,
        0.9998970627784729,
        0.99790108203887939
      ],
      "min": [
        -0.99569058418273926,
        -0.99999737739562988,
        -0.99520188570022583
      ],
      "type": "VEC3"
    },
    {
      "bufferView": 3,
      "byteOffset": 3145536,
      "componentType": 5126,
      "count": 23983,
      "max": [
        0.99999862909317017,
        0.99590742588043213,
        0.88100063800811768,
        1
      ],
      "min": [
        -0.99999862909317017,
        -0.99993109703063965,
        -0.94384092092514038,
        -1
      ],
      "type": "VEC4"
    },
    {
      "bufferView": 1,
      "byteOffset": 1572768,
      "componentType": 5126,
      "count": 23983,
      "max": [
        0.99679100513458252,
        0.99605101346969604
      ],
      "min": [
        0,
        0
      ],
      "type": "VEC2"
    },
    {
      "bufferView": 0,
      "byteOffset": 4008576,
      "componentType": 5125,
      "count": 117921,
      "max": [
        23982
      ],
      "min": [
        0
      ],
      "type": "SCALAR"
    }
  ],
  "asset": {
    "extras": {
      "author": "pencas (https://sketchfab.com/pencas)",
      "license": "CC-BY-4.0 (http://creativecommons.org/licenses/by/4.0/)",
      "source": "https://sketchfab.com/models/c7c34403ee7841d598b6fdd90528b46d",
      "title": "Devil"
    },
    "generator": "Sketchfab-3.26.2",
    "version": "2.0"
  },
  "bufferViews": [
    {
      "buffer": 0,
      "byteLength": 4480260,
      "byteOffset": 0,
      "name": "floatBufferViews",
      "target": 34963
    },
    {
      "buffer": 0,
      "byteLength": 1764632,
      "byteOffset": 4480260,
      "byteStride": 8,
      "name": "floatBufferViews",
      "target": 34962
    },
    {
      "buffer": 0,
      "byteLength": 5293896,
      "byteOffset": 6244892,
      "byteStride": 12,
      "name": "floatBufferViews",
      "target": 34962
    },
    {
      "buffer": 0,
      "byteLength": 3529264,
      "byteOffset": 11538788,
      "byteStride": 16,
      "name": "floatBufferViews",
      "target": 34962
    }
  ],
  "buffers": [
    {
      "byteLength": 15068052,
      "uri": "scene.bin"
    }
  ],
  "images": [
    {
      "uri": "textures/material_0_baseColor.png"
    }
  ],
  "materials": [
    {
      "doubleSided": true,
      "emissiveFactor": [
        0,
        0,
        0
      ],
      "name": "material_0",
      "pbrMetallicRoughness": {
        "baseColorFactor": [
          1,
          1,
          1,
          1
        ],
        "baseColorTexture": {
          "index": 0,
          "texCoord": 0
        },
        "metallicFactor": 0,
        "roughnessFactor": 0.59999999999999998
      }
    }
  ],
  "meshes": [
    {
      "primitives": [
        {
          "attributes": {
            "NORMAL": 1,
            "POSITION": 0,
            "TANGENT": 2,
            "TEXCOORD_0": 3
          },
          "indices": 4,
          "material": 0,
          "mode": 4
        }
      ]
    },
    {
      "primitives": [
        {
          "attributes": {
            "NORMAL": 6,
            "POSITION": 5,
            "TANGENT": 7,
            "TEXCOORD_0": 8
          },
          "indices": 9,
          "material": 0,
          "mode": 4
        }
      ]
    },
    {
      "primitives": [
        {
          "attributes": {
            "NORMAL": 11,
            "POSITION": 10,
            "TANGENT": 12,
            "TEXCOORD_0": 13
          },
          "indices": 14,
          "material": 0,
          "mode": 4
        }
      ]
    },
    {
      "primitives": [
        {
          "attributes": {
            "NORMAL": 16,
            "POSITION": 15,
            "TANGENT": 17,
            "TEXCOORD_0": 18
          },
          "indices": 19,
          "material": 0,
          "mode": 4
        }
      ]
    }
  ],
  "nodes": [
    {
      "children": [
        1
      ],
      "name": "RootNode (gltf orientation matrix)",
      "rotation": [
        -0.70710678118654746,
        -0,
        -0,
        0.70710678118654757
      ]
    },
    {
      "children": [
        2
      ],
      "matrix": [
        -0.99774688482284546,
        0,
        -0.067090652883052826,
        0,
        0,
        1,
        0,
        0,
        0.067090652883052826,
        0,
        -0.99774688482284546,
        0,
        -0.58805900812149048,
        0,
        -0.26005777716636658,
        1
      ],
      "name": "RootNode (model correction matrix)"
    },
    {
      "children": [
        3,
        4,
        5,
        6
      ],
      "name": "devil.obj.cleaner"
    },
    {
      "mesh": 0,
      "name": ""
    },
    {
      "mesh": 1,
      "name": ""
    },
    {
      "mesh": 2,
      "name": ""
    },
    {
      "mesh": 3,
      "name": ""
    }
  ],
  "samplers": [
    {
      "magFilter": 9729,
      "minFilter": 9987,
      "wrapS": 10497,
      "wrapT": 10497
    }
  ],
  "scene": 0,
  "scenes": [
    {
      "name": "OSG_Scene",
      "nodes": [
        0
      ]
    }
  ],
  "textures": [
    {
      "sampler": 0,
      "source": 0
    }
  ]
}

