{
  "accessors": [
    {
      "bufferView": 1,
      "componentType": 5126,
      "count": 1442,
      "max": [
        1.4942895174026489,
        0.61230921745300293,
        1.1995406150817871
      ],
      "min": [
        -1.494289755821228,
        -0.4278944730758667,
        -0.84238648414611816
      ],
      "type": "VEC3"
    },
    {
      "bufferView": 1,
      "byteOffset": 17304,
      "componentType": 5126,
      "count": 1442,
      "max": [
        0.99505782127380371,
        0.99505782127380371,
        0.99983417987823486
      ],
      "min": [
        -0.99505782127380371,
        -0.98370051383972168,
        -0.9960559606552124
      ],
      "type": "VEC3"
    },
    {
      "bufferView": 0,
      "componentType": 5125,
      "count": 2868,
      "max": [
        1441
      ],
      "min": [
        0
      ],
      "type": "SCALAR"
    }
  ],
  "asset": {
    "extras": {
      "author": "wewwuworks (https://sketchfab.com/Ensign_Crusher)",
      "license": "CC-BY-4.0 (http://creativecommons.org/licenses/by/4.0/)",
      "source": "https://sketchfab.com/3d-models/devil-horns-a9b4dbc6d5e84a288dfb6d55a75fc7e9",
      "title": "Devil Horns"
    },
    "generator": "Sketchfab-7.54.0",
    "version": "2.0"
  },
  "bufferViews": [
    {
      "buffer": 0,
      "byteLength": 11472,
      "byteOffset": 0,
      "name": "floatBufferViews",
      "target": 34963
    },
    {
      "buffer": 0,
      "byteLength": 34608,
      "byteOffset": 11472,
      "byteStride": 12,
      "name": "floatBufferViews",
      "target": 34962
    }
  ],
  "buffers": [
    {
      "byteLength": 46080,
      "uri": "scene.bin"
    }
  ],
  "materials": [
    {
      "doubleSided": true,
      "emissiveFactor": [
        0.080000000000000016,
        0.00091791500000000005,
        0.0020109900000000003
      ],
      "name": "Horn",
      "pbrMetallicRoughness": {
        "baseColorFactor": [
          0.80000000000000004,
          0.0091791500000000005,
          0.0201099,
          1
        ],
        "metallicFactor": 0,
        "roughnessFactor": 0.82394172574614266
      }
    }
  ],
  "meshes": [
    {
      "name": "Horn_Horn_0",
      "primitives": [
        {
          "attributes": {
            "NORMAL": 1,
            "POSITION": 0
          },
          "indices": 2,
          "material": 0,
          "mode": 4
        }
      ]
    }
  ],
  "nodes": [
    {
      "children": [
        1
      ],
      "name": "RootNode (gltf orientation matrix)",
      "rotation": [
        -0.70710678118654746,
        -0,
        -0,
        0.70710678118654757
      ]
    },
    {
      "children": [
        2
      ],
      "name": "RootNode (model correction matrix)"
    },
    {
      "children": [
        3
      ],
      "matrix": [
        1,
        0,
        0,
        0,
        0,
        0,
        1,
        0,
        0,
        -1,
        0,
        0,
        0,
        0,
        0,
        1
      ],
      "name": "e2d65efa82214504b0c1f033b09a5049.fbx"
    },
    {
      "children": [
        4
      ],
      "name": "RootNode"
    },
    {
      "children": [
        5
      ],
      "matrix": [
        100,
        0,
        0,
        0,
        0,
        -1.6292067939183141e-05,
        -99.999999999998678,
        0,
        0,
        99.999999999998678,
        -1.6292067939183141e-05,
        0,
        0,
        0,
        0,
        1
      ],
      "name": "Horn"
    },
    {
      "mesh": 0,
      "name": "Horn_Horn_0"
    }
  ],
  "scene": 0,
  "scenes": [
    {
      "name": "OSG_Scene",
      "nodes": [
        0
      ]
    }
  ]
}

