{
  "accessors": [
    {
      "bufferView": 2,
      "componentType": 5126,
      "count": 18380,
      "max": [
        13.148933410644531,
        23.172542572021484,
        5.0154080390930176
      ],
      "min": [
        -0.1897316575050354,
        1.4987409114837646,
        -0.68989461660385132
      ],
      "type": "VEC3"
    },
    {
      "bufferView": 2,
      "byteOffset": 220560,
      "componentType": 5126,
      "count": 18380,
      "max": [
        0.67017948627471924,
        0.77231287956237793,
        0.98715603351593018
      ],
      "min": [
        -0.99997729063034058,
        -0.75397586822509766,
        -0.99964076280593872
      ],
      "type": "VEC3"
    },
    {
      "bufferView": 1,
      "componentType": 5126,
      "count": 18380,
      "max": [
        0.96716922521591187,
        0.99099493026733398
      ],
      "min": [
        0,
        -4.76837158203125e-07
      ],
      "type": "VEC2"
    },
    {
      "bufferView": 1,
      "byteOffset": 147040,
      "componentType": 5126,
      "count": 18380,
      "max": [
        0.96716922521591187,
        0.99099493026733398
      ],
      "min": [
        0,
        -4.76837158203125e-07
      ],
      "type": "VEC2"
    },
    {
      "bufferView": 0,
      "componentType": 5125,
      "count": 34668,
      "max": [
        18379
      ],
      "min": [
        0
      ],
      "type": "SCALAR"
    },
    {
      "bufferView": 2,
      "byteOffset": 441120,
      "componentType": 5126,
      "count": 1543,
      "max": [
        4.463958740234375,
        21.474790573120117,
        2.617034912109375
      ],
      "min": [
        0.59057825803756714,
        15.865744590759277,
        0.21018657088279724
      ],
      "type": "VEC3"
    },
    {
      "bufferView": 2,
      "byteOffset": 459636,
      "componentType": 5126,
      "count": 1543,
      "max": [
        0.99912089109420776,
        0.99495011568069458,
        0.99878019094467163
      ],
      "min": [
        -0.99732524156570435,
        -0.9956546425819397,
        -0.99952125549316406
      ],
      "type": "VEC3"
    },
    {
      "bufferView": 1,
      "byteOffset": 294080,
      "componentType": 5126,
      "count": 1543,
      "max": [
        3.7366600036621094,
        3.9095118045806885
      ],
      "min": [
        -2.7904670238494873,
        -2.9095118045806885
      ],
      "type": "VEC2"
    },
    {
      "bufferView": 0,
      "byteOffset": 138672,
      "componentType": 5125,
      "count": 7800,
      "max": [
        1542
      ],
      "min": [
        0
      ],
      "type": "SCALAR"
    },
    {
      "bufferView": 2,
      "byteOffset": 478152,
      "componentType": 5126,
      "count": 18380,
      "max": [
        0.1897316575050354,
        23.172542572021484,
        5.0154080390930176
      ],
      "min": [
        -13.148933410644531,
        1.4987409114837646,
        -0.68989461660385132
      ],
      "type": "VEC3"
    },
    {
      "bufferView": 2,
      "byteOffset": 698712,
      "componentType": 5126,
      "count": 18380,
      "max": [
        0.99997729063034058,
        0.77231371402740479,
        0.9871562123298645
      ],
      "min": [
        -0.67018193006515503,
        -0.7539820671081543,
        -0.99964076280593872
      ],
      "type": "VEC3"
    },
    {
      "bufferView": 1,
      "byteOffset": 306424,
      "componentType": 5126,
      "count": 18380,
      "max": [
        0.96716922521591187,
        0.99099493026733398
      ],
      "min": [
        0,
        -4.76837158203125e-07
      ],
      "type": "VEC2"
    },
    {
      "bufferView": 1,
      "byteOffset": 453464,
      "componentType": 5126,
      "count": 18380,
      "max": [
        0.96716922521591187,
        0.99099493026733398
      ],
      "min": [
        0,
        -4.76837158203125e-07
      ],
      "type": "VEC2"
    },
    {
      "bufferView": 0,
      "byteOffset": 169872,
      "componentType": 5125,
      "count": 34668,
      "max": [
        18379
      ],
      "min": [
        0
      ],
      "type": "SCALAR"
    },
    {
      "bufferView": 2,
      "byteOffset": 919272,
      "componentType": 5126,
      "count": 1543,
      "max": [
        -0.59057825803756714,
        21.474790573120117,
        2.617034912109375
      ],
      "min": [
        -4.463958740234375,
        15.865744590759277,
        0.21018657088279724
      ],
      "type": "VEC3"
    },
    {
      "bufferView": 2,
      "byteOffset": 937788,
      "componentType": 5126,
      "count": 1543,
      "max": [
        0.99732494354248047,
        0.99495470523834229,
        0.99878019094467163
      ],
      "min": [
        -0.99912083148956299,
        -0.99565577507019043,
        -0.99952119588851929
      ],
      "type": "VEC3"
    },
    {
      "bufferView": 1,
      "byteOffset": 600504,
      "componentType": 5126,
      "count": 1543,
      "max": [
        3.7366600036621094,
        3.9095118045806885
      ],
      "min": [
        -2.7904670238494873,
        -2.9095118045806885
      ],
      "type": "VEC2"
    },
    {
      "bufferView": 0,
      "byteOffset": 308544,
      "componentType": 5125,
      "count": 7800,
      "max": [
        1542
      ],
      "min": [
        0
      ],
      "type": "SCALAR"
    }
  ],
  "asset": {
    "extras": {
      "author": "Boooooop (https://sketchfab.com/boooop)",
      "license": "CC-BY-4.0 (http://creativecommons.org/licenses/by/4.0/)",
      "source": "https://sketchfab.com/3d-models/angel-wings-917b4019a1614d179e70cda895fd3f16",
      "title": "Angel Wings"
    },
    "generator": "Sketchfab-10.34.0",
    "version": "2.0"
  },
  "bufferViews": [
    {
      "buffer": 0,
      "byteLength": 339744,
      "byteOffset": 0,
      "name": "floatBufferViews",
      "target": 34963
    },
    {
      "buffer": 0,
      "byteLength": 612848,
      "byteOffset": 339744,
      "byteStride": 8,
      "name": "floatBufferViews",
      "target": 34962
    },
    {
      "buffer": 0,
      "byteLength": 956304,
      "byteOffset": 952592,
      "byteStride": 12,
      "name": "floatBufferViews",
      "target": 34962
    }
  ],
  "buffers": [
    {
      "byteLength": 1908896,
      "uri": "scene.bin"
    }
  ],
  "images": [
    {
      "uri": "textures/Feather_baseColor.png"
    },
    {
      "uri": "textures/Feather_metallicRoughness.png"
    },
    {
      "uri": "textures/Wing_baseColor.jpeg"
    }
  ],
  "materials": [
    {
      "alphaMode": "BLEND",
      "doubleSided": true,
      "emissiveFactor": [
        0.14999999999999999,
        0.1297236873,
        0.1297236873
      ],
      "name": "Feather",
      "pbrMetallicRoughness": {
        "baseColorFactor": [
          1,
          1,
          1,
          0.94999999999999996
        ],
        "baseColorTexture": {
          "index": 0,
          "texCoord": 0
        },
        "metallicFactor": 0,
        "metallicRoughnessTexture": {
          "index": 1,
          "texCoord": 0
        },
        "roughnessFactor": 1
      }
    },
    {
      "doubleSided": false,
      "emissiveFactor": [
        0.21227099999999999,
        0.37116900000000003,
        0.40899999999999997
      ],
      "name": "Wing",
      "pbrMetallicRoughness": {
        "baseColorFactor": [
          1,
          1,
          1,
          1
        ],
        "baseColorTexture": {
          "index": 2,
          "texCoord": 0
        },
        "metallicFactor": 0,
        "roughnessFactor": 1
      }
    }
  ],
  "meshes": [
    {
      "name": "polySurface2197_Feather_0",
      "primitives": [
        {
          "attributes": {
            "NORMAL": 1,
            "POSITION": 0,
            "TEXCOORD_0": 2,
            "TEXCOORD_1": 3
          },
          "indices": 4,
          "material": 0,
          "mode": 4
        }
      ]
    },
    {
      "name": "polySurface2197_Wing_0",
      "primitives": [
        {
          "attributes": {
            "NORMAL": 6,
            "POSITION": 5,
            "TEXCOORD_0": 7
          },
          "indices": 8,
          "material": 1,
          "mode": 4
        }
      ]
    },
    {
      "name": "polySurface2631_Feather_0",
      "primitives": [
        {
          "attributes": {
            "NORMAL": 10,
            "POSITION": 9,
            "TEXCOORD_0": 11,
            "TEXCOORD_1": 12
          },
          "indices": 13,
          "material": 0,
          "mode": 4
        }
      ]
    },
    {
      "name": "polySurface2631_Wing_0",
      "primitives": [
        {
          "attributes": {
            "NORMAL": 15,
            "POSITION": 14,
            "TEXCOORD_0": 16
          },
          "indices": 17,
          "material": 1,
          "mode": 4
        }
      ]
    }
  ],
  "nodes": [
    {
      "children": [
        1
      ],
      "name": "RootNode (gltf orientation matrix)",
      "rotation": [
        -0.70710678118654746,
        -0,
        -0,
        0.70710678118654757
      ]
    },
    {
      "children": [
        2
      ],
      "matrix": [
        0.066666670143604279,
        0,
        0,
        0,
        0,
        0.066666670143604279,
        0,
        0,
        0,
        0,
        0.066666670143604279,
        0,
        0,
        0,
        0,
        1
      ],
      "name": "RootNode (model correction matrix)"
    },
    {
      "children": [
        3
      ],
      "matrix": [
        1,
        0,
        0,
        0,
        0,
        0,
        1,
        0,
        0,
        -1,
        0,
        0,
        0,
        0,
        0,
        1
      ],
      "name": "88cdca45322f4c18a569ce3345ec6457.fbx"
    },
    {
      "children": [
        4,
        7
      ],
      "name": "RootNode"
    },
    {
      "children": [
        5,
        6
      ],
      "name": "polySurface2197"
    },
    {
      "mesh": 0,
      "name": "polySurface2197_Feather_0"
    },
    {
      "mesh": 1,
      "name": "polySurface2197_Wing_0"
    },
    {
      "children": [
        8,
        9
      ],
      "name": "polySurface2631"
    },
    {
      "mesh": 2,
      "name": "polySurface2631_Feather_0"
    },
    {
      "mesh": 3,
      "name": "polySurface2631_Wing_0"
    }
  ],
  "samplers": [
    {
      "magFilter": 9729,
      "minFilter": 9987,
      "wrapS": 10497,
      "wrapT": 10497
    }
  ],
  "scene": 0,
  "scenes": [
    {
      "name": "OSG_Scene",
      "nodes": [
        0
      ]
    }
  ],
  "textures": [
    {
      "sampler": 0,
      "source": 0
    },
    {
      "sampler": 0,
      "source": 1
    },
    {
      "sampler": 0,
      "source": 2
    }
  ]
}

