{
  "accessors": [
    {
      "bufferView": 2,
      "componentType": 5126,
      "count": 1630,
      "max": [
        0.040954049676656723,
        0.040444698184728622,
        2.3541066646575928
      ],
      "min": [
        -0.040954053401947021,
        -0.040444698184728622,
        -0.023592749610543251
      ],
      "type": "VEC3"
    },
    {
      "bufferView": 2,
      "byteOffset": 19560,
      "componentType": 5126,
      "count": 1630,
      "max": [
        1,
        1,
        1
      ],
      "min": [
        -1,
        -1,
        -0.97833305597305298
      ],
      "type": "VEC3"
    },
    {
      "bufferView": 3,
      "componentType": 5126,
      "count": 1630,
      "max": [
        1,
        1,
        0.8186219334602356,
        -1
      ],
      "min": [
        -1,
        -1,
        -1,
        -1
      ],
      "type": "VEC4"
    },
    {
      "bufferView": 1,
      "componentType": 5126,
      "count": 1630,
      "max": [
        0.99856579303741455,
        1
      ],
      "min": [
        0,
        5.9604644775390625e-08
      ],
      "type": "VEC2"
    },
    {
      "bufferView": 1,
      "byteOffset": 13040,
      "componentType": 5126,
      "count": 1630,
      "max": [
        0.99856579303741455,
        1
      ],
      "min": [
        0,
        5.9604644775390625e-08
      ],
      "type": "VEC2"
    },
    {
      "bufferView": 1,
      "byteOffset": 26080,
      "componentType": 5126,
      "count": 1630,
      "max": [
        0.99856579303741455,
        1
      ],
      "min": [
        0,
        5.9604644775390625e-08
      ],
      "type": "VEC2"
    },
    {
      "bufferView": 1,
      "byteOffset": 39120,
      "componentType": 5126,
      "count": 1630,
      "max": [
        0.99856579303741455,
        1
      ],
      "min": [
        0,
        5.9604644775390625e-08
      ],
      "type": "VEC2"
    },
    {
      "bufferView": 1,
      "byteOffset": 52160,
      "componentType": 5126,
      "count": 1630,
      "max": [
        0.99856579303741455,
        1
      ],
      "min": [
        0,
        5.9604644775390625e-08
      ],
      "type": "VEC2"
    },
    {
      "bufferView": 0,
      "componentType": 5125,
      "count": 5376,
      "max": [
        1629
      ],
      "min": [
        0
      ],
      "type": "SCALAR"
    },
    {
      "bufferView": 2,
      "byteOffset": 39120,
      "componentType": 5126,
      "count": 54674,
      "max": [
        0.23025290668010712,
        0.036061316728591919,
        0.11260822415351868
      ],
      "min": [
        -0.23025290668010712,
        -0.036061316728591919,
        -0.73505192995071411
      ],
      "type": "VEC3"
    },
    {
      "bufferView": 2,
      "byteOffset": 695208,
      "componentType": 5126,
      "count": 54674,
      "max": [
        1,
        1,
        1
      ],
      "min": [
        -1,
        -1,
        -1
      ],
      "type": "VEC3"
    },
    {
      "bufferView": 3,
      "byteOffset": 26080,
      "componentType": 5126,
      "count": 54674,
      "max": [
        1,
        1,
        0.98351001739501953,
        1
      ],
      "min": [
        -1,
        -0.99999880790710449,
        -0.99999982118606567,
        -1
      ],
      "type": "VEC4"
    },
    {
      "bufferView": 1,
      "byteOffset": 65200,
      "componentType": 5126,
      "count": 54674,
      "max": [
        0.99982225894927979,
        0.99929523468017578
      ],
      "min": [
        0.0019035141449421644,
        0.00037997961044311523
      ],
      "type": "VEC2"
    },
    {
      "bufferView": 1,
      "byteOffset": 502592,
      "componentType": 5126,
      "count": 54674,
      "max": [
        0.99982225894927979,
        0.99929523468017578
      ],
      "min": [
        0.0019035141449421644,
        0.00037997961044311523
      ],
      "type": "VEC2"
    },
    {
      "bufferView": 1,
      "byteOffset": 939984,
      "componentType": 5126,
      "count": 54674,
      "max": [
        0.99982225894927979,
        0.99929523468017578
      ],
      "min": [
        0.0019035141449421644,
        0.00037997961044311523
      ],
      "type": "VEC2"
    },
    {
      "bufferView": 1,
      "byteOffset": 1377376,
      "componentType": 5126,
      "count": 54674,
      "max": [
        0.99982225894927979,
        0.99929523468017578
      ],
      "min": [
        0.0019035141449421644,
        0.00037997961044311523
      ],
      "type": "VEC2"
    },
    {
      "bufferView": 1,
      "byteOffset": 1814768,
      "componentType": 5126,
      "count": 54674,
      "max": [
        0.99982225894927979,
        0.99929523468017578
      ],
      "min": [
        0.0019035141449421644,
        0.00037997961044311523
      ],
      "type": "VEC2"
    },
    {
      "bufferView": 0,
      "byteOffset": 21504,
      "componentType": 5125,
      "count": 307194,
      "max": [
        54673
      ],
      "min": [
        0
      ],
      "type": "SCALAR"
    }
  ],
  "asset": {
    "extras": {
      "author": "AramisReal (https://sketchfab.com/AramisReal)",
      "license": "CC-BY-4.0 (http://creativecommons.org/licenses/by/4.0/)",
      "source": "https://sketchfab.com/3d-models/devils-fork-3f065767d7084ea187ea3fb2082fedce",
      "title": "Devil's Fork"
    },
    "generator": "Sketchfab-9.28.2",
    "version": "2.0"
  },
  "bufferViews": [
    {
      "buffer": 0,
      "byteLength": 1250280,
      "byteOffset": 0,
      "name": "floatBufferViews",
      "target": 34963
    },
    {
      "buffer": 0,
      "byteLength": 2252160,
      "byteOffset": 1250280,
      "byteStride": 8,
      "name": "floatBufferViews",
      "target": 34962
    },
    {
      "buffer": 0,
      "byteLength": 1351296,
      "byteOffset": 3502440,
      "byteStride": 12,
      "name": "floatBufferViews",
      "target": 34962
    },
    {
      "buffer": 0,
      "byteLength": 900864,
      "byteOffset": 4853736,
      "byteStride": 16,
      "name": "floatBufferViews",
      "target": 34962
    }
  ],
  "buffers": [
    {
      "byteLength": 5754600,
      "uri": "scene.bin"
    }
  ],
  "images": [
    {
      "uri": "textures/Handle_baseColor.png"
    },
    {
      "uri": "textures/Handle_metallicRoughness.png"
    },
    {
      "uri": "textures/Handle_emissive.png"
    },
    {
      "uri": "textures/Handle_normal.png"
    },
    {
      "uri": "textures/Steel_baseColor.png"
    },
    {
      "uri": "textures/Steel_metallicRoughness.png"
    },
    {
      "uri": "textures/Steel_emissive.png"
    },
    {
      "uri": "textures/Steel_normal.png"
    }
  ],
  "materials": [
    {
      "doubleSided": true,
      "emissiveFactor": [
        1,
        1,
        1
      ],
      "emissiveTexture": {
        "index": 2,
        "texCoord": 0
      },
      "name": "Handle",
      "normalTexture": {
        "index": 3,
        "scale": 1,
        "texCoord": 0
      },
      "pbrMetallicRoughness": {
        "baseColorFactor": [
          1,
          1,
          1,
          1
        ],
        "baseColorTexture": {
          "index": 0,
          "texCoord": 0
        },
        "metallicFactor": 1,
        "metallicRoughnessTexture": {
          "index": 1,
          "texCoord": 0
        },
        "roughnessFactor": 1
      }
    },
    {
      "doubleSided": true,
      "emissiveFactor": [
        1,
        1,
        1
      ],
      "emissiveTexture": {
        "index": 6,
        "texCoord": 2
      },
      "name": "Steel",
      "normalTexture": {
        "index": 7,
        "scale": 1,
        "texCoord": 3
      },
      "pbrMetallicRoughness": {
        "baseColorFactor": [
          1,
          1,
          1,
          1
        ],
        "baseColorTexture": {
          "index": 4,
          "texCoord": 0
        },
        "metallicFactor": 1,
        "metallicRoughnessTexture": {
          "index": 5,
          "texCoord": 1
        },
        "roughnessFactor": 1
      }
    }
  ],
  "meshes": [
    {
      "primitives": [
        {
          "attributes": {
            "NORMAL": 1,
            "POSITION": 0,
            "TANGENT": 2,
            "TEXCOORD_0": 3,
            "TEXCOORD_1": 4,
            "TEXCOORD_2": 5,
            "TEXCOORD_3": 6,
            "TEXCOORD_4": 7
          },
          "indices": 8,
          "material": 0,
          "mode": 4
        }
      ]
    },
    {
      "primitives": [
        {
          "attributes": {
            "NORMAL": 10,
            "POSITION": 9,
            "TANGENT": 11,
            "TEXCOORD_0": 12,
            "TEXCOORD_1": 13,
            "TEXCOORD_2": 14,
            "TEXCOORD_3": 15,
            "TEXCOORD_4": 16
          },
          "indices": 17,
          "material": 1,
          "mode": 4
        }
      ]
    }
  ],
  "nodes": [
    {
      "children": [
        1
      ],
      "name": "RootNode (gltf orientation matrix)",
      "rotation": [
        -0.70710678118654746,
        -0,
        -0,
        0.70710678118654757
      ]
    },
    {
      "children": [
        2
      ],
      "name": "RootNode (model correction matrix)"
    },
    {
      "children": [
        3
      ],
      "name": "root"
    },
    {
      "children": [
        4,
        6
      ],
      "matrix": [
        1,
        0,
        0,
        0,
        0,
        2.2204460492503131e-16,
        1,
        0,
        0,
        -1,
        2.2204460492503131e-16,
        0,
        0,
        0,
        0,
        1
      ],
      "name": "GLTF_SceneRootNode"
    },
    {
      "children": [
        5
      ],
      "matrix": [
        1,
        0,
        0,
        0,
        0,
        1,
        0,
        0,
        0,
        0,
        1,
        0,
        0,
        0,
        0.41015034914016724,
        1
      ],
      "name": "Handle_1"
    },
    {
      "mesh": 0,
      "name": ""
    },
    {
      "children": [
        7
      ],
      "matrix": [
        1,
        0,
        0,
        0,
        0,
        1,
        0,
        0,
        0,
        0,
        1,
        0,
        0,
        0,
        0.27400490641593933,
        1
      ],
      "name": "Fork_2"
    },
    {
      "mesh": 1,
      "name": ""
    }
  ],
  "samplers": [
    {
      "magFilter": 9729,
      "minFilter": 9987,
      "wrapS": 10497,
      "wrapT": 10497
    }
  ],
  "scene": 0,
  "scenes": [
    {
      "name": "OSG_Scene",
      "nodes": [
        0
      ]
    }
  ],
  "textures": [
    {
      "sampler": 0,
      "source": 0
    },
    {
      "sampler": 0,
      "source": 1
    },
    {
      "sampler": 0,
      "source": 2
    },
    {
      "sampler": 0,
      "source": 3
    },
    {
      "sampler": 0,
      "source": 4
    },
    {
      "sampler": 0,
      "source": 5
    },
    {
      "sampler": 0,
      "source": 6
    },
    {
      "sampler": 0,
      "source": 7
    }
  ]
}

